<svg xmlns="http://www.w3.org/2000/svg" viewBox="0 0 600 520" role="img" aria-label="CINDY, wealth specialist dengan blazer biru dan tablet"><defs><linearGradient id="b" x2="1" y2="1"><stop stop-color="#6084ff"/><stop offset="1" stop-color="#2546b9"/></linearGradient><radialGradient id="s" cx=".3" cy=".25"><stop stop-color="#ffe0be"/><stop offset="1" stop-color="#e7a686"/></radialGradient><linearGradient id="h"><stop stop-color="#644644"/><stop offset="1" stop-color="#322332"/></linearGradient></defs><ellipse cx="300" cy="469" rx="195" ry="24" fill="#a8baff" opacity=".35"/><rect x="174" y="234" width="250" height="163" rx="52" fill="#f3dec1"/><path d="M195 390v57m207-57v57" stroke="#d4ac69" stroke-width="10"/><rect x="162" y="313" width="272" height="90" rx="28" fill="#fff0da"/><path d="M263 350l-3 81m67-81 17 81" stroke="#213a71" stroke-width="39" stroke-linecap="round"/><ellipse cx="254" cy="440" rx="31" ry="14" fill="#273047"/><ellipse cx="350" cy="440" rx="31" ry="14" fill="#273047"/><rect x="235" y="211" width="113" height="147" rx="49" fill="url(#b)"/><path d="m273 223 20 89 26-89" fill="#fffaf4"/><path d="m263 226 12 65-25-24m77-42-17 69 31-33" fill="#7797ff"/><rect x="211" y="67" width="151" height="173" rx="74" fill="url(#h)"/><ellipse cx="288" cy="146" rx="67" ry="77" fill="url(#s)"/><path d="M222 125q-7-82 72-66 63 0 62 84-18-17-28-48-33 36-106 30" fill="url(#h)"/><ellipse cx="264" cy="151" rx="7" ry="11" fill="#32283a"/><ellipse cx="312" cy="151" rx="7" ry="11" fill="#32283a"/><circle cx="266" cy="147" r="2.5" fill="white"/><circle cx="314" cy="147" r="2.5" fill="white"/><path d="M274 186q14 13 29-1" stroke="#a45855" stroke-width="5" fill="none" stroke-linecap="round"/><path d="m343 248 37 22 19-50" stroke="url(#b)" stroke-width="29" stroke-linecap="round"/><path d="m399 222 2-40m-1 18-13-13m12 7 12-24" stroke="url(#s)" stroke-width="14" stroke-linecap="round"/><path d="m246 257-14 54 47 15" stroke="url(#b)" stroke-width="28" fill="none" stroke-linecap="round"/><rect x="263" y="292" width="91" height="65" rx="8" fill="#213a71" transform="rotate(-8 308 322)"/><rect x="274" y="301" width="70" height="42" rx="4" fill="#e4efff"/><path d="M287 332v-10m14 10v-17m14 17v-25m14 25v-29" stroke="#5274ed" stroke-width="7"/><ellipse cx="267" cy="327" rx="16" ry="9" fill="url(#s)"/></svg>
